<svg width="16" height="16" viewBox="0 0 16 16" fill="none" xmlns="http://www.w3.org/2000/svg">
<path d="M13.3333 7.33333H12.6667V4.66667H13.3333V2.66667H14.6667V4.66667H15.3333V7.33333H14.6667V12C14.6667 12.5304 14.456 13.0391 14.0809 13.4142C13.7058 13.7893 13.1971 14 12.6667 14C12.1362 14 11.6275 13.7893 11.2525 13.4142C10.8774 13.0391 10.6667 12.5304 10.6667 12V9.33333H9.33334V12.6667H10V14H1.33334V12.6667H2.00001V2.66667C2.00001 2.48986 2.07025 2.32029 2.19527 2.19526C2.3203 2.07024 2.48987 2 2.66668 2H8.66668C8.84349 2 9.01306 2.07024 9.13808 2.19526C9.26311 2.32029 9.33334 2.48986 9.33334 2.66667V8H10.6667C11.0203 8 11.3594 8.14048 11.6095 8.39052C11.8595 8.64057 12 8.97971 12 9.33333V12C12 12.1768 12.0702 12.3464 12.1953 12.4714C12.3203 12.5964 12.4899 12.6667 12.6667 12.6667C12.8435 12.6667 13.0131 12.5964 13.1381 12.4714C13.2631 12.3464 13.3333 12.1768 13.3333 12V7.33333ZM8.00001 12.6667V3.33333H3.33334V12.6667H8.00001ZM6.00001 7.33333H8.00001L5.33334 11.3333V8.66667H3.33334L6.00001 4.66667V7.33333Z" fill="white"/>
</svg>
