<svg width="438" height="304" viewBox="0 0 438 304" fill="none" xmlns="http://www.w3.org/2000/svg">
<path d="M142.015 59.861L179.318 49.4651M192.159 54.3573L199.498 68.4223M239.246 49.4651L199.498 68.4223M275.326 32.9541L264.93 17.0546L307.125 1.15503L335.867 28.0619L254.535 68.4223M213.563 136.913L224.57 120.401L217.232 103.279L305.457 77.2893M219.678 69.6453L217.232 69.4971M199.498 68.4223L217.232 69.4971M156.08 87.9909L185.433 77.2893L217.232 81.2642L217.232 69.4971M185.433 126.517L164.641 170.546L184.21 178.496L206.224 138.747M213.563 146.085L199.498 170.546M293.06 96.5522L315.687 109.394M293.06 96.5522L317.855 58.0264M293.06 96.5522L272.88 130.186M219.678 127.74L264.93 154.647M247.808 127.74L293.06 154.647M164.641 100.833L179.318 94.7176M386.623 22.5582L376.227 42.7384M362.774 113.675L345.04 103.279L365.831 62.9186M362.774 113.675L386.623 69.6453M362.774 113.675C357.881 139.359 372.893 133.904 368.277 133.243M362.774 113.675L436.938 152.67M386.623 69.6453L365.831 62.9186M386.623 69.6453L401.299 77.2893M365.831 62.9186L376.227 42.7384M376.227 42.7384L413.53 58.0264L401.299 77.2893M401.299 77.2893L386.623 103.279L372.048 96.5522M308.96 190.726C310.427 189.259 321.802 169.731 327.305 160.15L357.27 175.438L345.04 198.676L299.787 175.438M224.57 175.438L241.693 184M241.693 184L241.693 168.1L260.038 178.496L241.693 212.741L241.693 184ZM241.693 184L227.628 204.18M290.614 186.446L272.88 221.302M272.88 221.302L299.787 234.756L290.614 207.237M272.88 221.302L264.93 230.475L299.787 250.655L313.24 221.302L290.614 207.237M272.88 221.302L290.614 207.237M272.88 221.302L260.038 215.799M290.614 207.237L269.823 193.784C245.06 185.688 232.552 172.961 202.555 196.017M122.446 198.676C131.985 207.179 138.705 211.253 156.08 215.799L144.461 230.475C141.122 236.421 138.734 239.123 111.439 215.799L122.446 198.676ZM122.446 198.676C176.064 208.215 192.074 206.908 202.555 196.017M202.555 196.017C211.361 216.245 208.67 233.125 206.224 239.036L172.591 224.971L168.31 230.475L199.498 243.929L189.713 270.835L140.18 313.03L106.547 277.562M106.547 277.562L91.8701 262.274M106.547 277.562L91.8701 294.073L75.359 284.289L91.8701 262.274M91.8701 262.274C91.8701 262.274 90.6471 246.375 106.547 243.929C122.446 241.483 129.784 256.771 129.784 256.771C130.095 263.065 124.603 265.041 91.8701 262.274ZM75.359 154.647L126.727 175.438L73.5245 272.67L64.3517 270.835L159.137 100.833L138.957 47.0191L46.0061 92.2716L52.1213 103.279L164.641 109.394M0.753571 103.279L25.8259 132.02L42.9485 138.747L34.7949 150.978M34.7949 150.978L29.495 158.927L17.2646 154.647L21.5453 146.085L34.7949 150.978ZM25.8259 182.165C25.8259 182.165 17.2646 187.669 17.2646 198.676C17.2646 209.683 29.495 224.971 29.495 224.971L21.5453 243.929C21.5453 243.929 11.7609 250.044 9.92638 239.036C8.09182 228.029 37.4448 190.115 37.4448 190.115M266.765 278.785L255.146 289.583M175.037 333.822L219.678 366.844L247.808 335.045L189.713 298.354L176.871 313.03L206.224 335.045L255.146 289.583M175.037 333.822L213.563 298.354L189.713 284.289L156.08 320.369L175.037 333.822ZM241.693 284.289L255.146 262.274L285.722 278.785L264.93 298.354M264.93 298.354L255.146 289.583M264.93 298.354L275.938 309.973L320.579 281.134M320.579 281.134L345.04 265.332L373.169 284.289L337.09 315.476L303.456 289.583L320.579 281.134ZM320.579 281.134L337.09 301.412L361.551 328.93L418.422 254.936L396.407 243.929L416.587 218.856M381.119 234.756L399.465 207.237L384.788 198.676L400.688 173.604" stroke="url(#paint0_linear_122_182)" stroke-opacity="0.4" stroke-width="2"/>
<defs>
<linearGradient id="paint0_linear_122_182" x1="209.588" y1="1.15503" x2="209.588" y2="366.844" gradientUnits="userSpaceOnUse">
<stop stop-color="#054ACA"/>
<stop offset="1" stop-color="#054ACA" stop-opacity="0.05"/>
</linearGradient>
</defs>
</svg>
