<svg width="531" height="265" viewBox="0 0 531 265" fill="none" xmlns="http://www.w3.org/2000/svg">
<path d="M179.915 218.334L163.074 224.008L2.59579 261.396L4.97236 181.77L151.367 130.989L179.915 218.334ZM179.915 218.334L281.54 184.097L286.185 182.532M340.192 164.338L424.976 135.774L449.715 118.739M340.192 164.338L320.328 115.899L282.818 85.6759L237.367 95.7221L258.31 127.451L268.519 152.346L286.185 182.532M340.192 164.338L286.185 182.532M449.715 118.739L527.026 65.5048L463.119 3.14565L370.602 59.5916C393.983 76.8519 442.54 112.846 449.715 118.739Z" stroke="url(#paint0_linear_122_184)" stroke-opacity="0.5" stroke-width="5"/>
<defs>
<linearGradient id="paint0_linear_122_184" x1="233.836" y1="87.917" x2="278.152" y2="195.984" gradientUnits="userSpaceOnUse">
<stop stop-color="#054ACA" stop-opacity="0"/>
<stop offset="1" stop-color="#054ACA"/>
</linearGradient>
</defs>
</svg>
