<svg width="491" height="394" viewBox="0 0 491 394" fill="none" xmlns="http://www.w3.org/2000/svg">
<path d="M145.295 138.737C148.045 145.102 151.257 158.233 153.046 162.418M153.046 162.418C165.054 156.455 180.688 149.247 199.517 143.989C218.345 138.73 222.259 137.269 229.261 137.474C245.862 136.636 247.144 136.932 250.778 137.331M153.046 162.418L172.994 201.885M250.778 137.331C252.607 137.192 339.897 90.2249 339.897 90.2249L408.237 52.6793L425.597 46.9975M250.778 137.331C248.715 153.256 241.048 164.893 230.824 180.929M489.325 69.8366L472.621 54.6055L457.789 47.9606M361.9 134.539L371.93 117.918L401.251 111.541L440.723 140.479L407.939 197.205L379.417 246.556M361.9 134.539L348.351 138.974L295 156.434C290.806 158.067 270.151 169.961 262.335 172.645C254.519 175.329 250.777 177.579 229.732 183.315M361.9 134.539L318.521 211.113M229.732 183.315L172.994 201.885M229.732 183.315L230.824 180.929M172.994 201.885C179.435 204.377 207.374 220.99 207.374 220.99M172.994 201.885L108.821 319.48M207.374 220.99L230.824 180.929M207.374 220.99L231.635 235.128M286.73 267.232L347.944 301.013M286.73 267.232L318.521 211.113M286.73 267.232L255.612 321.113M286.73 267.232L247.052 244.111M347.944 301.013L379.417 246.556M347.944 301.013L435.163 348.361M347.944 301.013L315.828 356.14M318.521 211.113L379.417 246.556M379.417 246.556L439.756 277.474L435.163 348.361M435.163 348.361L391.404 400.859L315.828 356.14M315.828 356.14L255.612 321.113M315.828 356.14L286.342 415.006M255.612 321.113L215.064 300.347M255.612 321.113L231.327 380.117M215.064 300.347L247.052 244.111M215.064 300.347L204.163 294.255M247.052 244.111L231.635 235.128M231.635 235.128L204.163 294.255M204.163 294.255L176.538 350.212M176.538 350.212L231.327 380.117M176.538 350.212L108.821 319.48M231.327 380.117L286.342 415.006M286.342 415.006L301.869 422.344M108.821 319.48L81.3459 362.969L26.6502 336.254L55.6469 284.447M142.498 137.352C174.237 126.447 189.884 121.373 215.326 113.517L328.991 46.8781L395.716 2.96201L430.911 24.5603M430.911 24.5603L425.597 46.9975M430.911 24.5603L442.957 41.3158L425.597 46.9975M141.062 210.307L18.0772 222.69L3.26612 251.915L55.6469 284.447M75.0471 296.496L55.6469 284.447" stroke="url(#paint0_linear_122_181)" stroke-opacity="0.4" stroke-width="5"/>
<defs>
<linearGradient id="paint0_linear_122_181" x1="217.669" y1="61.2343" x2="334.878" y2="419.359" gradientUnits="userSpaceOnUse">
<stop stop-color="#054ACA"/>
<stop offset="1" stop-color="#054ACA" stop-opacity="0.05"/>
</linearGradient>
</defs>
</svg>
